<svg width="25" height="17" viewBox="0 0 25 17" fill="none" xmlns="http://www.w3.org/2000/svg">
<path d="M13.2745 9.17109L9.52205 15.5978L5.76961 9.17109H13.2745ZM14.2798 8.59668H4.76028L9.52205 16.7346L14.2798 8.59668Z" fill="#263238"/>
<path d="M19.7986 1.17808L23.551 7.60481H16.0461L19.7986 1.17808ZM19.7986 0.0292969L15.0368 8.16715H24.5604L19.7986 0.0292969Z" fill="#263238"/>
<path d="M0.197937 0.0292969L4.19052 7.22725L8.55345 0.210039L0.197937 0.0292969Z" fill="#4CAF4F"/>
<path d="M9.52214 0.659668L13.7101 7.81746H5.32607L9.52214 0.659668Z" fill="#4CAF4F"/>
<path d="M14.7886 9.38037L18.9806 16.735H10.3972L14.6583 9.38037H14.7886Z" fill="#4CAF4F"/>
<path d="M15.6961 8.93408L19.7986 16.1762L23.958 8.93408H15.6961Z" fill="#4CAF4F"/>
</svg>
