<svg width="35" height="20" viewBox="0 0 35 20" fill="none" xmlns="http://www.w3.org/2000/svg">
<path d="M17.3729 0.393311C14.887 0.393311 12.8633 2.4355 12.8633 4.93192C12.8633 6.51119 13.6743 7.90561 14.8989 8.71841C13.4198 9.21295 12.14 10.1372 11.2014 11.3464C10.6824 10.9473 10.1025 10.6262 9.47738 10.3962C10.4253 9.69242 11.0448 8.56193 11.0448 7.29134C11.0448 5.17408 9.33242 3.44083 7.22798 3.44083C5.12355 3.44083 3.41116 5.17408 3.41116 7.29134C3.41116 8.56265 4.03115 9.69367 4.9799 10.3974C2.46808 11.3243 0.674164 13.7511 0.674164 16.607V18.6132C0.674421 18.7662 0.735597 18.9127 0.844067 19.0204C0.952536 19.1283 1.09931 19.1885 1.25225 19.188H10.054C10.0754 19.1903 10.0967 19.1916 10.118 19.1913H24.6282C24.6495 19.1916 24.6711 19.1903 24.6922 19.188H33.4946C33.811 19.1867 34.0673 18.9299 34.0681 18.6132V16.607C34.0681 13.7511 32.2773 11.3243 29.7668 10.3972C30.7155 9.69367 31.3355 8.56239 31.3355 7.29108C31.3355 5.17381 29.6231 3.44057 27.5187 3.44057C25.4143 3.44057 23.7018 5.17381 23.7018 7.29108C23.7018 8.56167 24.3216 9.69235 25.2695 10.3959C24.6431 10.6265 24.063 10.9486 23.5433 11.3487C22.605 10.1388 21.327 9.21324 19.848 8.71841C21.0723 7.90561 21.8836 6.51119 21.8836 4.93192C21.8836 2.4355 19.8588 0.393311 17.373 0.393311H17.3729ZM17.3729 1.54486C19.232 1.54486 20.7308 3.05371 20.7308 4.93192C20.7308 6.79545 19.2554 8.28964 17.4168 8.31359C17.4022 8.31359 17.3878 8.31153 17.3729 8.31153C17.358 8.31153 17.3438 8.31359 17.3289 8.31359C15.4903 8.28994 14.0159 6.79552 14.0159 4.93192C14.0159 3.05345 15.5134 1.54486 17.3726 1.54486H17.3729ZM7.22805 4.59231C8.70322 4.59231 9.89332 5.78959 9.89332 7.29128C9.89332 8.7829 8.71861 9.97504 7.25733 9.99123C7.24756 9.99123 7.23805 9.9902 7.22803 9.9902C7.21826 9.9902 7.20875 9.99123 7.19873 9.99123C5.73745 9.97504 4.56274 8.78263 4.56274 7.29128C4.56274 5.78966 5.75284 4.59231 7.22801 4.59231H7.22805ZM27.5183 4.59231C28.9935 4.59231 30.1836 5.78959 30.1836 7.29128C30.1836 8.7829 29.0089 9.97504 27.5476 9.99123C27.5378 9.99123 27.5283 9.9902 27.5183 9.9902C27.5085 9.9902 27.499 9.99123 27.489 9.99123C26.0277 9.97504 24.853 8.78263 24.853 7.29128C24.853 5.78966 26.0431 4.59231 27.5183 4.59231H27.5183ZM17.3288 9.46507C17.3434 9.46533 17.3578 9.46713 17.3727 9.46713C17.3874 9.46713 17.4018 9.46507 17.4167 9.46507C21.1039 9.48872 24.0549 12.465 24.0549 16.1908L24.0546 18.0394H10.6914V16.1908C10.6914 12.4647 13.6414 9.48876 17.3282 9.46507H17.3288ZM7.18396 11.1441C7.19861 11.1444 7.21301 11.1461 7.22792 11.1461C7.24282 11.1461 7.25696 11.1441 7.27187 11.1441C8.51903 11.1541 9.65722 11.5841 10.5635 12.3036C9.915 13.4511 9.53996 14.7755 9.53996 16.1911V18.0354H1.82525V16.607C1.82525 13.579 4.20599 11.1677 7.18383 11.1438L7.18396 11.1441ZM27.4742 11.1441C27.4891 11.1444 27.5033 11.1461 27.5182 11.1461C27.5331 11.1461 27.5472 11.1441 27.5621 11.1441C30.54 11.1677 32.9207 13.5793 32.9207 16.6072V18.0354H25.2021L25.2018 16.1911C25.2018 14.7763 24.8278 13.4528 24.1805 12.3056C25.0871 11.5852 26.2261 11.1541 27.4743 11.1441H27.4742Z" fill="#103E13"/>
</svg>
